<svg width="48" height="43" viewBox="0 0 48 43" fill="none" xmlns="http://www.w3.org/2000/svg">
<g clip-path="url(#clip0_70_616)">
<path d="M1 4.83L14.42 41.25H33.73L47 6.75C47 6.75 43.17 1 31.67 1C20.17 1 12.5 6.75 6.75 6.75C1 6.75 1 4.83 1 4.83Z" stroke="black" stroke-width="2" stroke-linecap="round" stroke-linejoin="round"/>
<path d="M1 4.83C1 4.83 2.92 1 8.67 1C12.4972 1.0839 16.2912 1.73084 19.93 2.92" stroke="black" stroke-width="2" stroke-linecap="round" stroke-linejoin="round"/>
<path d="M28.0801 9.58C27.8149 9.58 27.5605 9.68536 27.373 9.8729C27.1854 10.0604 27.0801 10.3148 27.0801 10.58C27.0801 10.8452 27.1854 11.0996 27.373 11.2871C27.5605 11.4746 27.8149 11.58 28.0801 11.58C28.3453 11.58 28.5996 11.4746 28.7872 11.2871C28.9747 11.0996 29.0801 10.8452 29.0801 10.58C29.0801 10.3148 28.9747 10.0604 28.7872 9.8729C28.5996 9.68536 28.3453 9.58 28.0801 9.58Z" fill="black"/>
<path d="M32.75 9.58C32.5522 9.58 32.3589 9.63865 32.1944 9.74853C32.03 9.85841 31.9018 10.0146 31.8261 10.1973C31.7504 10.38 31.7306 10.5811 31.7692 10.7751C31.8078 10.9691 31.903 11.1473 32.0429 11.2871C32.1827 11.427 32.3609 11.5222 32.5549 11.5608C32.7489 11.5994 32.95 11.5796 33.1327 11.5039C33.3154 11.4282 33.4716 11.3 33.5815 11.1356C33.6914 10.9711 33.75 10.7778 33.75 10.58C33.75 10.3148 33.6446 10.0604 33.4571 9.8729C33.2696 9.68536 33.0152 9.58 32.75 9.58Z" fill="black"/>
<path d="M37.4199 9.58C37.2221 9.58 37.0288 9.63865 36.8644 9.74853C36.6999 9.85841 36.5717 10.0146 36.496 10.1973C36.4204 10.38 36.4006 10.5811 36.4391 10.7751C36.4777 10.9691 36.573 11.1473 36.7128 11.2871C36.8527 11.427 37.0309 11.5222 37.2248 11.5608C37.4188 11.5994 37.6199 11.5796 37.8026 11.5039C37.9853 11.4282 38.1415 11.3 38.2514 11.1356C38.3613 10.9711 38.4199 10.7778 38.4199 10.58C38.4199 10.3148 38.3146 10.0604 38.127 9.8729C37.9395 9.68536 37.6851 9.58 37.4199 9.58Z" fill="black"/>
<path d="M35.1699 13.33C34.9721 13.33 34.7788 13.3887 34.6144 13.4985C34.4499 13.6084 34.3217 13.7646 34.246 13.9473C34.1704 14.13 34.1506 14.3311 34.1891 14.5251C34.2277 14.7191 34.323 14.8973 34.4628 15.0371C34.6027 15.177 34.7809 15.2722 34.9748 15.3108C35.1688 15.3494 35.3699 15.3296 35.5526 15.2539C35.7353 15.1782 35.8915 15.05 36.0014 14.8856C36.1113 14.7211 36.1699 14.5278 36.1699 14.33C36.1699 14.0648 36.0646 13.8104 35.877 13.6229C35.6895 13.4354 35.4351 13.33 35.1699 13.33Z" fill="black"/>
<path d="M30.5 13.33C30.3022 13.33 30.1089 13.3887 29.9444 13.4985C29.78 13.6084 29.6518 13.7646 29.5761 13.9473C29.5004 14.13 29.4806 14.3311 29.5192 14.5251C29.5578 14.7191 29.653 14.8973 29.7929 15.0371C29.9327 15.177 30.1109 15.2722 30.3049 15.3108C30.4989 15.3494 30.7 15.3296 30.8827 15.2539C31.0654 15.1782 31.2216 15.05 31.3315 14.8856C31.4414 14.7211 31.5 14.5278 31.5 14.33C31.5 14.0648 31.3946 13.8104 31.2071 13.6229C31.0196 13.4354 30.7652 13.33 30.5 13.33Z" fill="black"/>
<path d="M25.8301 13.33C25.5649 13.33 25.3105 13.4354 25.123 13.6229C24.9354 13.8104 24.8301 14.0648 24.8301 14.33C24.8301 14.5952 24.9354 14.8496 25.123 15.0371C25.3105 15.2246 25.5649 15.33 25.8301 15.33C26.0953 15.33 26.3496 15.2246 26.5372 15.0371C26.7247 14.8496 26.8301 14.5952 26.8301 14.33C26.8301 14.0648 26.7247 13.8104 26.5372 13.6229C26.3496 13.4354 26.0953 13.33 25.8301 13.33Z" fill="black"/>
</g>
<defs>
<clipPath id="clip0_70_616">
<rect width="48" height="42.25" fill="white"/>
</clipPath>
</defs>
</svg>
