<svg width="50" height="50" viewBox="0 0 50 50" fill="none" xmlns="http://www.w3.org/2000/svg">
<path d="M44.83 1H5.17C2.86697 1 1 2.86697 1 5.17V44.83C1 47.133 2.86697 49 5.17 49H44.83C47.133 49 49 47.133 49 44.83V5.17C49 2.86697 47.133 1 44.83 1Z" stroke="black" stroke-width="2" stroke-linecap="round" stroke-linejoin="round"/>
<path d="M44.83 1H5.17C2.86697 1 1 2.86697 1 5.17V31.74C1 34.043 2.86697 35.91 5.17 35.91H44.83C47.133 35.91 49 34.043 49 31.74V5.17C49 2.86697 47.133 1 44.83 1Z" stroke="black" stroke-width="2" stroke-linecap="round" stroke-linejoin="round"/>
<path d="M5.36011 42.45H10.8201" stroke="black" stroke-width="2" stroke-linecap="round" stroke-linejoin="round"/>
<path d="M38.0901 42.45H44.6401" stroke="black" stroke-width="2" stroke-linecap="round" stroke-linejoin="round"/>
<path d="M33.7199 40.27H15.1799V44.63H33.7199V40.27Z" stroke="black" stroke-width="2" stroke-linecap="round" stroke-linejoin="round"/>
</svg>
