<svg width="48" height="48" viewBox="0 0 48 48" fill="none" xmlns="http://www.w3.org/2000/svg">
<path d="M12.1101 1H31.7101C32.7154 1.00527 33.6778 1.40764 34.3877 2.11942C35.0976 2.83121 35.4975 3.79471 35.5001 4.8L39.6801 43.21C39.6748 44.2135 39.2739 45.1745 38.5642 45.8841C37.8546 46.5938 36.8936 46.9947 35.8901 47H7.8901C6.88574 46.9974 5.92327 46.5972 5.21308 45.887C4.50289 45.1768 4.10274 44.2144 4.1001 43.21L7.6601 10.89" stroke="black" stroke-width="2" stroke-miterlimit="10" stroke-linecap="round"/>
<path d="M14.59 1H1C1 1 3.09 13.55 4.14 20.86C4.79 25.44 5.14 27.86 5.6 29.08" stroke="black" stroke-width="2" stroke-linecap="round" stroke-linejoin="round"/>
<path d="M36.29 8.32001H43.07C44.1115 8.32265 45.1096 8.73755 45.8461 9.47399C46.5825 10.2104 46.9974 11.2085 47 12.25L46 37.85C45.9988 38.3712 45.8939 38.8869 45.6914 39.3672C45.489 39.8475 45.193 40.2827 44.8208 40.6475C44.4485 41.0123 44.0074 41.2994 43.5232 41.4921C43.0389 41.6848 42.5212 41.7793 42 41.77H40.47" stroke="black" stroke-width="2" stroke-miterlimit="10" stroke-linecap="round"/>
<path d="M30.27 6.23L34.46 41.77" stroke="black" stroke-width="2" stroke-miterlimit="10" stroke-linecap="round"/>
</svg>
