<svg width="23" height="54" viewBox="0 0 23 54" fill="none" xmlns="http://www.w3.org/2000/svg">
<g clip-path="url(#clip0_70_672)">
<path d="M5.65 18C5.65 21.18 1 25.1 1 26V51.37C1 52.27 2.07 53 3.39 53H18.78C20.09 53 21.16 52.27 21.16 51.37V26C21.16 25.1 16.51 21.18 16.51 18L15 5.25H7.2L5.65 18Z" stroke="black" stroke-width="2" stroke-miterlimit="10"/>
<path d="M15.2302 1H6.93018V5.24H15.2302V1Z" stroke="black" stroke-width="2" stroke-miterlimit="10"/>
<path d="M14.8 47.69H1" stroke="black" stroke-width="2" stroke-miterlimit="10" stroke-linecap="round"/>
<path d="M1 29H4.93C6.05 29 6.24 28.25 6.24 26.76C6.21633 26.5246 6.24207 26.2868 6.31558 26.0619C6.38908 25.837 6.50873 25.6299 6.66687 25.4538C6.825 25.2778 7.01814 25.1368 7.23392 25.0397C7.44971 24.9426 7.68338 24.8916 7.92 24.89C8.17055 24.8705 8.42236 24.9054 8.6581 24.9925C8.89384 25.0796 9.10793 25.2167 9.28563 25.3944C9.46333 25.5721 9.60043 25.7862 9.6875 26.0219C9.77457 26.2576 9.80954 26.5095 9.79 26.76C9.79 28.25 9.41 30.12 11.47 30.12C13.53 30.12 13.34 28.63 13.34 28.25C13.3571 27.8603 13.5196 27.4912 13.7954 27.2154C14.0712 26.9396 14.4403 26.7771 14.83 26.76C15.0518 26.7573 15.272 26.7989 15.4776 26.8823C15.6831 26.9656 15.8701 27.0891 16.0274 27.2455C16.1847 27.4019 16.3093 27.5881 16.3939 27.7932C16.4785 27.9983 16.5213 28.2182 16.52 28.44C16.52 29.19 16.33 31.81 18.2 31.81H21.57" stroke="black" stroke-width="2" stroke-miterlimit="10"/>
</g>
<defs>
<clipPath id="clip0_70_672">
<rect width="22.16" height="54" fill="white"/>
</clipPath>
</defs>
</svg>
