<svg width="36" height="55" viewBox="0 0 36 55" fill="none" xmlns="http://www.w3.org/2000/svg">
<g clip-path="url(#clip0_59_25)">
<path d="M32.14 38H29.23C28.73 36.83 27.56 36 26.2 36H3.79001C1.97001 36 0.5 37.48 0.5 39.36C0.9 45.58 2.11001 56 5.79001 56H24.2C26.04 56 27.26 53.39 28.08 50H31.13C34.05 50 35.15 44.05 35.48 41.49L35.49 41.36C35.5 39.51 33.99 38 32.14 38ZM24.01 44L14.09 54H10.91L20.83 44H24.01ZM26.83 44H27.06C26.9 45.26 26.72 46.44 26.53 47.51L20.09 54H16.91L26.83 44ZM3.79001 38H26.2C26.91 38 27.49 38.58 27.49 39.23C27.43 40.18 27.35 41.1 27.26 42H2.70999C2.61999 41.12 2.54999 40.22 2.48999 39.29C2.49999 38.58 3.08001 38 3.79001 38ZM3.79001 49.07L8.82999 44H12.01L4.45001 51.62C4.22001 50.91 4.00001 50.05 3.79001 49.07ZM3.34 46.69C3.2 45.84 3.07001 44.94 2.95001 44H6.01001L3.34 46.69ZM5.29001 53.6L14.82 44H18L8.07999 54H5.79001C5.64001 54 5.47001 53.85 5.29001 53.6ZM24.21 54H22.9L25.68 51.2C25.17 52.96 24.64 54 24.21 54ZM31.14 48H28.5C28.99 45.33 29.28 42.42 29.45 40H32.14C32.87 40 33.47 40.58 33.5 41.3C33.01 44.92 31.8 48 31.14 48ZM15.56 32.31C17.18 32.31 18.5 30.92 18.5 29.21C18.5 27.96 17.2 26 16.42 24.94C16.36 24.85 16.26 24.76 16.18 24.7C15.73 24.39 15.03 24.5 14.71 24.94C13.93 26 12.63 27.97 12.63 29.22C12.63 30.92 13.94 32.31 15.56 32.31ZM15.56 27.23C16.15 28.18 16.5 28.93 16.5 29.21C16.5 29.82 16.08 30.31 15.56 30.31C15.04 30.31 14.62 29.82 14.62 29.21C14.63 28.94 14.97 28.18 15.56 27.23ZM27.95 4.67999C27.9 4.52999 26.65 1 20 1C17.68 1 15.51 1.43001 13.56 1.96001C12.66 1.73001 9.65 1 7 1C3.42 1 2.15999 3.45 2.10999 3.55C2.10999 3.56 2.11001 3.57 2.10001 3.58C2.09001 3.6 2.07999 3.61 2.07999 3.62C2.05999 3.67 2.06001 3.72999 2.04001 3.78999C2.03001 3.84999 2.01001 3.90001 2.01001 3.96001C2.01001 3.97001 2 3.98001 2 3.99001C2 3.99001 2 3.99999 2 4.00999V4.02C2 4.19 2.05001 4.47999 2.26001 4.78999L5.45999 11.99H5C4.66 11.99 4.35001 12.16 4.17001 12.44C3.98001 12.72 3.95 13.08 4.09 13.38L7.01001 20.19V22C7.01001 22.55 7.46001 23 8.01001 23H22.01C22.56 23 23.01 22.55 23.01 22V20.21L25.93 13.4C26.06 13.09 26.03 12.74 25.85 12.46C25.66 12.18 25.35 12.01 25.02 12.01H24.56L27.91 5.47C28.01 5.22 28.03 4.93999 27.95 4.67999ZM9.54001 3.2C8.13001 3.65 6.9 4 6 4C5.24 4 4.74001 3.93001 4.42001 3.85001C4.89001 3.45001 5.69 3 7 3C7.83 3 8.71001 3.08 9.54001 3.2ZM21.08 19.61C21.03 19.73 21 19.87 21 20V21H9V20C9 19.86 8.97001 19.73 8.92001 19.61L6.51999 14H7H23.48L21.08 19.61ZM22.29 12H7.64999L4.95999 5.95C5.26999 5.98 5.61 6 6 6C7.4 6 9.07 5.46 11 4.83C13.65 3.97 16.65 3 20 3C23.99 3 25.42 4.37999 25.87 5.00999L22.29 12ZM23 6C23 6.55 22.55 7 22 7C21.45 7 21 6.55 21 6C21 5.45 21.45 5 22 5C22.55 5 23 5.45 23 6ZM19 6C19 6.55 18.55 7 18 7C17.45 7 17 6.55 17 6C17 5.45 17.45 5 18 5C18.55 5 19 5.45 19 6ZM15 6C15 6.55 14.55 7 14 7C13.45 7 13 6.55 13 6C13 5.45 13.45 5 14 5C14.55 5 15 5.45 15 6ZM17 9C17 9.55 16.55 10 16 10C15.45 10 15 9.55 15 9C15 8.45 15.45 8 16 8C16.55 8 17 8.45 17 9ZM21 9C21 9.55 20.55 10 20 10C19.45 10 19 9.55 19 9C19 8.45 19.45 8 20 8C20.55 8 21 8.45 21 9ZM13 9C13 9.55 12.55 10 12 10C11.45 10 11 9.55 11 9C11 8.45 11.45 8 12 8C12.55 8 13 8.45 13 9Z" fill="black"/>
</g>
<defs>
<clipPath id="clip0_59_25">
<rect width="36" height="55" fill="white"/>
</clipPath>
</defs>
</svg>
