<svg width="36" height="51" viewBox="0 0 36 51" fill="none" xmlns="http://www.w3.org/2000/svg">
<path d="M31.7101 33H28.8001C28.3001 31.83 27.1301 31 25.7701 31H3.36005C1.54005 31 0.0700684 32.48 0.0700684 34.36C0.470068 40.58 1.68005 51 5.36005 51H23.7701C25.6101 51 26.8301 48.39 27.6501 45H30.7001C33.6201 45 34.7201 39.05 35.0501 36.49L35.0601 36.36C35.0701 34.51 33.5701 33 31.7101 33ZM3.37006 33H25.7801C26.4901 33 27.0701 33.58 27.0701 34.23C27.0101 35.18 26.9301 36.1 26.8401 37H2.29004C2.20004 36.12 2.13007 35.22 2.07007 34.29C2.07007 33.58 2.65006 33 3.37006 33ZM23.7801 49H5.37006C4.50006 49 3.26008 44.87 2.52008 39H26.6301C25.8901 44.88 24.6501 49 23.7801 49ZM30.7101 43H28.0701C28.5601 40.33 28.8501 37.42 29.0201 35H31.7101C32.4401 35 33.0401 35.58 33.0701 36.3C32.5901 39.92 31.3801 43 30.7101 43ZM14.2801 19.93C13.5001 20.99 12.2001 22.96 12.2001 24.21C12.2001 25.92 13.5201 27.31 15.1401 27.31C16.7601 27.31 18.0801 25.92 18.0801 24.21C18.0801 22.97 16.7801 21 16.0001 19.94C15.9401 19.85 15.8401 19.76 15.7601 19.7C15.3001 19.38 14.6001 19.49 14.2801 19.93ZM16.0701 24.21C16.0701 24.82 15.6501 25.31 15.1301 25.31C14.6101 25.31 14.1901 24.82 14.1901 24.21C14.1901 23.94 14.5301 23.18 15.1301 22.23C15.7301 23.18 16.0701 23.94 16.0701 24.21ZM9.00006 11.1C9.02006 11.27 9.09004 11.41 9.17004 11.55L9.16003 11.56C9.25003 11.7 11.5001 15.01 14.9901 15.01C18.4801 15.01 20.7301 11.71 20.8201 11.56L20.8101 11.55C20.9001 11.42 20.9701 11.27 20.9801 11.1L21.8901 2H24.0001V0H6.00006V2H8.09009L9.00006 11.1ZM12.3501 12H17.6501C16.9501 12.53 16.0401 13 15.0001 13C13.9601 13 13.0501 12.53 12.3501 12ZM19.1001 10H10.9101L10.1101 2H19.9001L19.1001 10Z" fill="black"/>
</svg>
