<svg width="22" height="52" viewBox="0 0 22 52" fill="none" xmlns="http://www.w3.org/2000/svg">
<g clip-path="url(#clip0_59_61)">
<path d="M1.78561 1V0H0.785614V1H1.78561ZM1.78561 1.55932H0.785614V1.96058L1.06297 2.25054L1.78561 1.55932ZM1.00256 4.3L0.417072 3.48932L0.00256324 3.78869V4.3H1.00256ZM1.00256 48.4864L1.99911 48.5695L2.00256 48.528V48.4864H1.00256ZM20.5787 48.4864H19.5787V48.528L19.5821 48.5695L20.5787 48.4864ZM20.5787 4.3H21.5787V3.78869L21.1642 3.48932L20.5787 4.3ZM19.7956 1.55932L20.5183 2.25054L20.7956 1.96058V1.55932H19.7956ZM19.7956 1H20.7956V0H19.7956V1ZM1.78561 2H9.72787V0H1.78561V2ZM2.78561 1.55932V1H0.785614V1.55932H2.78561ZM1.58805 5.11068C2.55449 4.41269 3.06756 3.59944 3.14758 2.74774C3.22472 1.92674 2.87949 1.25621 2.50825 0.868099L1.06297 2.25054C1.10191 2.29125 1.17057 2.40936 1.15635 2.56065C1.14502 2.68124 1.06148 3.02392 0.417072 3.48932L1.58805 5.11068ZM2.00256 48.4864V4.3H0.00256324V48.4864H2.00256ZM5.589 49.5C3.78459 49.5 2.83335 49.1782 2.37459 48.8945C1.92224 48.6147 2.01062 48.4314 1.99911 48.5695L0.00601751 48.4034C-0.0614244 49.2127 0.418473 50.0362 1.32248 50.5954C2.22008 51.1506 3.59003 51.5 5.589 51.5V49.5ZM9.72787 49.5H5.589V51.5H9.72787V49.5ZM9.72787 51.5H11.8534V49.5H9.72787V51.5ZM11.8534 51.5H15.9922V49.5H11.8534V51.5ZM15.9922 51.5C17.9912 51.5 19.3612 51.1506 20.2587 50.5954C21.1628 50.0362 21.6427 49.2127 21.5752 48.4034L19.5821 48.5695C19.5706 48.4314 19.659 48.6147 19.2066 48.8945C18.7479 49.1782 17.7966 49.5 15.9922 49.5V51.5ZM21.5787 48.4864V4.3H19.5787V48.4864H21.5787ZM21.1642 3.48932C20.5198 3.02392 20.4362 2.68124 20.4249 2.56065C20.4107 2.40936 20.4793 2.29125 20.5183 2.25054L19.073 0.868099C18.7017 1.25621 18.3565 1.92674 18.4336 2.74774C18.5137 3.59944 19.0267 4.41269 19.9932 5.11068L21.1642 3.48932ZM20.7956 1.55932V1H18.7956V1.55932H20.7956ZM19.7956 0H11.8534V2H19.7956V0ZM11.8534 0H11.1263V2H11.8534V0ZM11.1263 0H10.4549V2H11.1263V0ZM10.4549 0H9.72787V2H10.4549V0Z" fill="black"/>
<path d="M17.0001 6H9.66675" stroke="black" stroke-width="2" stroke-linecap="round"/>
<path d="M5 6H6.5" stroke="black" stroke-width="2" stroke-linecap="round"/>
<path d="M16.5357 23.4748L13.4751 20.4142L10.4145 23.4748L13.4751 26.5355L16.5357 23.4748Z" stroke="black" stroke-width="2"/>
<path d="M17.4862 36.9497L13.9507 33.4142L10.4151 36.9497L13.9507 40.4853L17.4862 36.9497Z" stroke="black" stroke-width="2"/>
<path d="M9.58672 30.0004L7.00049 27.4142L4.41425 30.0004L7.00049 32.5867L9.58672 30.0004Z" stroke="black" stroke-width="2"/>
</g>
<defs>
<clipPath id="clip0_59_61">
<rect width="22" height="52" fill="white"/>
</clipPath>
</defs>
</svg>
