<svg width="17" height="19" viewBox="0 0 17 19" fill="none" xmlns="http://www.w3.org/2000/svg">
<path d="M1.99515 6.06864C2.08126 5.80382 2.31614 5.61634 2.59293 5.5913L6.36814 5.24856L7.86013 1.75551C7.97029 1.49888 8.22093 1.33325 8.49991 1.33325C8.77889 1.33325 9.02963 1.49888 9.13909 1.75551L10.6311 5.24856L14.4069 5.5913C14.6837 5.61684 14.9181 5.80432 15.0047 6.06864C15.0908 6.33345 15.0112 6.6239 14.8019 6.8075L11.9482 9.30984L12.7896 13.0158C12.8511 13.2883 12.7454 13.5701 12.5193 13.7335C12.3978 13.8218 12.255 13.8659 12.1117 13.8659C11.9886 13.8659 11.8653 13.8332 11.7553 13.7673L8.49991 11.8209L5.24514 13.7673C5.00637 13.91 4.70613 13.897 4.48053 13.7335C4.25444 13.5701 4.14867 13.2883 4.21023 13.0158L5.05167 9.30984L2.1979 6.8075C1.98867 6.6239 1.90904 6.33405 1.99515 6.06864Z" stroke="black" stroke-width="2.5"/>
<path d="M4.25 17.75H12.75" stroke="black" stroke-width="2.5" stroke-linecap="round"/>
</svg>
