<svg width="43" height="63" viewBox="0 0 43 63" fill="none" xmlns="http://www.w3.org/2000/svg">
<g clip-path="url(#clip0_38_254)">
<path fill-rule="evenodd" clip-rule="evenodd" d="M9 36.1643V60.4127C9 61.7078 9.89543 62.7577 11 62.7577H41C42.1046 62.7577 43 61.7078 43 60.4127V33.4456V31.1006H41H17.1873L13.3958 33.4456H41V60.4127H11V34.9273L9 36.1643Z" fill="white"/>
<path d="M37.5 12.927L4.99999 33.4455L1.3751 25.3703C0.612124 23.6706 1.15312 21.5676 2.59042 20.646L29.4167 3.44487C30.8512 2.52508 32.6497 3.12143 33.4608 4.78585L36 9.99583" stroke="white" stroke-width="2" stroke-linecap="round" stroke-linejoin="round"/>
<path d="M22 36.9629V46.3428L26.5 42.5056L31 46.3428V36.9629" stroke="white" stroke-width="2" stroke-linecap="round" stroke-linejoin="round"/>
<path d="M15.3558 11.669L24.9407 5.69358C24.9407 5.69358 21.9309 1.12678 18.8545 3.33871C15.0702 6.05964 15.3558 11.669 15.3558 11.669Z" stroke="white" stroke-width="2"/>
<path d="M15.3558 11.6689L5.77091 17.6443C5.77091 17.6443 4.22487 12.165 7.50916 10.4115C11.5493 8.25457 15.3558 11.6689 15.3558 11.6689Z" stroke="white" stroke-width="2"/>
<path d="M32.5 27.5831C33.3284 27.5831 34 26.7957 34 25.8244C34 24.8531 33.3284 24.0657 32.5 24.0657C31.6716 24.0657 31 24.8531 31 25.8244C31 26.7957 31.6716 27.5831 32.5 27.5831Z" fill="white"/>
<path d="M40 27.583C40.5523 27.583 41 27.0581 41 26.4105C41 25.763 40.5523 25.238 40 25.238C39.4477 25.238 39 25.763 39 26.4105C39 27.0581 39.4477 27.583 40 27.583Z" fill="white"/>
<path d="M37 22.8931C38.1046 22.8931 39 21.8432 39 20.5481C39 19.253 38.1046 18.2031 37 18.2031C35.8954 18.2031 35 19.253 35 20.5481C35 21.8432 35.8954 22.8931 37 22.8931Z" fill="white"/>
</g>
<defs>
<clipPath id="clip0_38_254">
<rect width="43" height="62.1417" fill="white" transform="translate(0 0.615967)"/>
</clipPath>
</defs>
</svg>
