<svg width="37" height="55" viewBox="0 0 37 55" fill="none" xmlns="http://www.w3.org/2000/svg">
<g clip-path="url(#clip0_40_326)">
<path d="M16.9524 13.7441L7 1.99805H29L19.0476 13.7441H16.9524Z" stroke="white" stroke-width="2" stroke-linejoin="round"/>
<path d="M8.5 45.4585V53.0934H28V45.4585" stroke="white" stroke-width="2" stroke-linejoin="round"/>
<path d="M10.6317 12.5805L9.11781 11.0413C8.84107 11.4519 8.5986 11.8742 8.38677 12.2996C7.69012 13.699 7.34603 15.0878 7.17472 16.12C7.0887 16.6384 7.04513 17.0736 7.023 17.3847C7.01193 17.5405 7.00618 17.6657 7.0032 17.7554C7.00171 17.8004 7.00091 17.8365 7.00048 17.863L7.00008 17.8958L7.00002 17.9067L7 17.9108V17.9126C7 17.9133 7 17.914 8 17.914H7V30.1886C7 30.8373 7.44772 31.3632 8 31.3632C8.55228 31.3632 9 30.8373 9 30.1886V17.9173L9.00013 17.9073C9.00031 17.8959 9.00073 17.8756 9.00168 17.8469C9.00359 17.7896 9.00761 17.6992 9.01606 17.5803C9.033 17.3421 9.06755 16.9928 9.13778 16.5696C9.27897 15.7188 9.55988 14.5971 10.1132 13.4855C10.2631 13.1845 10.4347 12.8806 10.6317 12.5805Z" fill="white"/>
<path fill-rule="evenodd" clip-rule="evenodd" d="M25.5784 12.9177C25.6903 13.1071 25.7928 13.2969 25.8868 13.4856C26.4401 14.5972 26.721 15.7189 26.8622 16.5697C26.9324 16.9929 26.967 17.3422 26.9839 17.5804C26.9924 17.6993 26.9964 17.7897 26.9983 17.8471C26.9993 17.8757 26.9997 17.896 26.9999 17.9074L27 17.9154V17.9173V30.1887C27 30.8375 27.4477 31.3633 28 31.3633C28.5523 31.3633 29 30.8375 29 30.1887V17.9141H28C29 17.9141 29 17.9134 29 17.9127V17.9068L28.9999 17.8959L28.9995 17.8631C28.9991 17.8366 28.9983 17.8005 28.9968 17.7556C28.9938 17.6658 28.9881 17.5406 28.977 17.3848C28.9549 17.0737 28.9113 16.6385 28.8253 16.1202C28.654 15.0879 28.3099 13.6991 27.6132 12.2997C27.4581 11.9882 27.2866 11.6784 27.0972 11.3735L25.5784 12.9177ZM27 17.9173C27 17.9179 27 17.9179 27 17.9173V17.9173Z" fill="white"/>
<path d="M13 9.04565V17.2679H23V9.04565" stroke="white" stroke-width="2" stroke-linecap="round" stroke-linejoin="round"/>
<path d="M36.0238 32.9891C36.0239 32.9891 36.0232 32.9908 36.0212 32.9944C36.0227 32.9908 36.0237 32.9891 36.0238 32.9891ZM35.1379 32.597C35.5255 32.8007 35.7718 32.9836 35.9127 33.125C35.7718 33.2664 35.5255 33.4493 35.1379 33.653C34.3056 34.0903 33.0388 34.5127 31.3956 34.8778C28.1257 35.6045 23.5659 36.0615 18.5 36.0615C13.4341 36.0615 8.87434 35.6045 5.60443 34.8778C3.96124 34.5127 2.69439 34.0903 1.86214 33.653C1.47447 33.4493 1.22819 33.2664 1.08727 33.125C1.22819 32.9836 1.47447 32.8007 1.86214 32.597C2.69439 32.1597 3.96124 31.7373 5.60443 31.3721C8.87434 30.6455 13.4341 30.1885 18.5 30.1885C23.5659 30.1885 28.1257 30.6455 31.3956 31.3721C33.0388 31.7373 34.3056 32.1597 35.1379 32.597ZM0.976177 32.9891C0.976291 32.9891 0.97727 32.9908 0.978771 32.9944C0.976814 32.9908 0.976063 32.9891 0.976177 32.9891ZM0.976177 33.2609C0.976063 33.2609 0.976814 33.2591 0.978771 33.2556C0.97727 33.2591 0.976291 33.2609 0.976177 33.2609ZM36.0212 33.2556C36.0232 33.2591 36.0239 33.2609 36.0238 33.2609C36.0237 33.2609 36.0227 33.2591 36.0212 33.2556Z" stroke="white" stroke-width="2"/>
<path d="M1 33.7124V35.0197C1 39.3398 2.94984 43.2618 6.54494 44.1732C9.29162 44.8695 13.1855 45.4584 18.5 45.4584C23.8145 45.4584 27.7084 44.8695 30.4551 44.1732C34.0502 43.2618 36 39.3398 36 35.0197V33.7124" stroke="white" stroke-width="2" stroke-linejoin="round"/>
<path d="M18 25.4902C19.1046 25.4902 20 24.4384 20 23.141C20 21.8435 19.1046 20.7917 18 20.7917C16.8954 20.7917 16 21.8435 16 23.141C16 24.4384 16.8954 25.4902 18 25.4902Z" fill="white"/>
</g>
<defs>
<clipPath id="clip0_40_326">
<rect width="37" height="54.0317" fill="white" transform="translate(0 0.823486)"/>
</clipPath>
</defs>
</svg>
