<svg width="73" height="51" viewBox="0 0 73 51" fill="none" xmlns="http://www.w3.org/2000/svg">
<g clip-path="url(#clip0_59_5)">
<path d="M38.1428 0V2.31H33.4928C32.625 1.5 31.425 1 30.1071 1C29.2178 1 28.3285 1.24 27.5571 1.69L27.4393 1.77C26.8178 2.25 25.5428 3 24.75 3C23.7107 3 22.7892 2.45001 22.3393 1.57001L22.05 1H5.46425C2.80711 1 0.642822 3.02 0.642822 5.5C0.642822 7.98 2.80711 10 5.46425 10H22.05L22.3393 9.42999C22.7892 8.54999 23.7107 8 24.75 8C25.5535 8 26.8285 8.75 27.4393 9.23L27.5571 9.31C28.3285 9.76 29.2178 10 30.1071 10C31.275 10 32.3357 9.6 33.1714 8.95H38.1428V10.42L41.9893 14.01H45.6428V18.01H56.3571V14.01H60.0107L63.8571 10.42V0H38.1428ZM30.1071 8C29.6357 8 29.1642 7.88 28.7464 7.64C28.3285 7.33 26.4643 6 24.75 6C23.1428 6 21.6428 6.77 20.7535 8H5.46425C3.98568 8 2.78568 6.88 2.78568 5.5C2.78568 4.12 3.98568 3 5.46425 3H20.7535C21.6428 4.23 23.1428 5 24.75 5C26.4643 5 28.3285 3.67 28.7464 3.36C29.1642 3.13 29.6357 3 30.1071 3C31.5857 3 32.7857 4.12 32.7857 5.5C32.7857 6.88 31.5857 8 30.1071 8ZM34.65 6.95C34.8214 6.49 34.9285 6.01 34.9285 5.5C34.9285 5.08 34.8428 4.69 34.7357 4.31H38.1428V6.95H34.65ZM54.2142 16H47.7857V14H54.2142V16ZM61.7142 9.59L59.1321 12H56.3571H45.6428H42.8678L40.2857 9.59V2H61.7142V9.59ZM68.8285 33H65.7107C65.175 31.83 63.9214 31 62.4642 31H38.4535C36.5035 31 34.9285 32.48 34.9285 34.36C35.3571 40.58 36.6535 51 40.5964 51H60.3214C62.2928 51 63.6 48.39 64.4785 45H67.7464C70.875 45 72.0535 39.05 72.4071 36.49L72.4178 36.36C72.4285 34.51 70.8107 33 68.8285 33ZM60.1178 39L49.4893 49H46.0821L56.7107 39H60.1178ZM63.1393 39H63.3857C63.2142 40.26 63.0214 41.44 62.8178 42.51L55.9178 49H52.5107L63.1393 39ZM38.4535 33H62.4642C63.225 33 63.8464 33.58 63.8464 34.23C63.7821 35.18 63.6964 36.1 63.6 37H37.2964C37.2 36.12 37.125 35.22 37.0607 34.29C37.0714 33.58 37.6928 33 38.4535 33ZM38.4535 44.07L43.8535 39H47.2607L39.1607 46.62C38.9142 45.91 38.6785 45.05 38.4535 44.07ZM37.9714 41.69C37.8214 40.84 37.6821 39.94 37.5535 39H40.8321L37.9714 41.69ZM40.0607 48.6L50.2714 39H53.6785L43.05 49H40.5964C40.4357 49 40.2535 48.85 40.0607 48.6ZM60.3321 49H58.9285L61.9071 46.2C61.3607 47.96 60.7928 49 60.3321 49ZM67.7571 43H64.9285C65.4535 40.33 65.7643 37.42 65.9464 35H68.8285C69.6107 35 70.2535 35.58 70.2857 36.3C69.7607 39.92 68.4642 43 67.7571 43ZM51.0643 27.31C52.8 27.31 54.2142 25.92 54.2142 24.21C54.2142 22.96 52.8214 21 51.9857 19.94C51.9214 19.85 51.8143 19.76 51.7285 19.7C51.2464 19.39 50.4964 19.5 50.1535 19.94C49.3178 21 47.925 22.97 47.925 24.22C47.925 25.92 49.3285 27.31 51.0643 27.31ZM51.0643 22.23C51.6964 23.18 52.0714 23.93 52.0714 24.21C52.0714 24.82 51.6214 25.31 51.0643 25.31C50.5071 25.31 50.0571 24.82 50.0571 24.21C50.0678 23.94 50.4321 23.18 51.0643 22.23Z" fill="black"/>
</g>
<defs>
<clipPath id="clip0_59_5">
<rect width="71.7857" height="51" fill="white" transform="translate(0.642822)"/>
</clipPath>
</defs>
</svg>
