<svg width="68" height="52" viewBox="0 0 68 52" fill="none" xmlns="http://www.w3.org/2000/svg">
<path d="M35.87 0.869995V3.17999H31.53C30.72 2.36999 29.6 1.87 28.37 1.87C27.54 1.87 26.71 2.11 25.99 2.56L25.88 2.64C25.3 3.12 24.11 3.87 23.37 3.87C22.4 3.87 21.54 3.32 21.12 2.44L20.85 1.87H5.37C2.89 1.87 0.869995 3.89 0.869995 6.37C0.869995 8.85 2.89 10.87 5.37 10.87H20.85L21.12 10.3C21.54 9.42 22.4 8.87 23.37 8.87C24.12 8.87 25.31 9.62001 25.88 10.1L25.99 10.18C26.71 10.63 27.54 10.87 28.37 10.87C29.46 10.87 30.45 10.47 31.23 9.82001H35.87V11.29L39.46 14.88H42.87V18.88H52.87V14.88H56.28L59.87 11.29V0.880005H35.87V0.869995ZM28.37 8.87C27.93 8.87 27.49 8.74999 27.1 8.50999C26.71 8.19999 24.97 6.87 23.37 6.87C21.87 6.87 20.47 7.64 19.64 8.87H5.37C3.99 8.87 2.87 7.75 2.87 6.37C2.87 4.99 3.99 3.87 5.37 3.87H19.64C20.47 5.1 21.87 5.87 23.37 5.87C24.97 5.87 26.71 4.54 27.1 4.23C27.49 4 27.93 3.87 28.37 3.87C29.75 3.87 30.87 4.99 30.87 6.37C30.87 7.75 29.75 8.87 28.37 8.87ZM32.61 7.81C32.77 7.35 32.87 6.87 32.87 6.36C32.87 5.94 32.79 5.55 32.69 5.17H35.87V7.81H32.61ZM50.87 16.87H44.87V14.87H50.87V16.87ZM57.87 10.45L55.46 12.86H52.87H42.87H40.28L37.87 10.45V2.86H57.87V10.45ZM64.51 33.87H61.6C61.1 32.7 59.93 31.87 58.57 31.87H36.16C34.34 31.87 32.87 33.35 32.87 35.23C33.27 41.45 34.48 51.87 38.16 51.87H56.57C58.41 51.87 59.63 49.26 60.45 45.87H63.5C66.42 45.87 67.52 39.92 67.85 37.36L67.86 37.23C67.87 35.37 66.36 33.87 64.51 33.87ZM35.91 43.73C37.09 43.8 37.84 43.98 38.62 44.17C39.71 44.43 40.83 44.7 43.05 44.7C45.27 44.7 46.4 44.43 47.49 44.17C48.51 43.93 49.48 43.7 51.46 43.7C53.44 43.7 54.41 43.93 55.43 44.17C56.29 44.38 57.19 44.58 58.62 44.66C58.46 45.4 58.3 46.08 58.14 46.68C56.81 46.63 56.04 46.43 55.25 46.23C54.24 45.97 53.19 45.7 51.13 45.7C49.07 45.7 48.02 45.97 47.01 46.23C46.08 46.47 45.2 46.7 43.39 46.7C41.58 46.7 40.7 46.47 39.77 46.23C38.88 46 37.95 45.76 36.33 45.71C36.19 45.1 36.05 44.43 35.91 43.73ZM55.9 42.22C54.81 41.96 53.68 41.69 51.46 41.69C49.24 41.69 48.11 41.96 47.02 42.22C46 42.46 45.03 42.69 43.05 42.69C41.07 42.69 40.1 42.46 39.08 42.22C38.15 42 37.2 41.77 35.57 41.71C35.48 41.12 35.39 40.5 35.31 39.87H59.41C59.28 40.86 59.14 41.79 58.99 42.67C57.58 42.61 56.76 42.42 55.9 42.22ZM36.16 33.87H58.57C59.28 33.87 59.86 34.45 59.86 35.1C59.8 36.05 59.72 36.97 59.63 37.87H35.08C34.99 36.99 34.92 36.09 34.86 35.16C34.87 34.45 35.45 33.87 36.16 33.87ZM56.58 49.87H38.17C37.79 49.87 37.35 49.09 36.9 47.74C37.92 47.82 38.58 47.99 39.27 48.16C40.28 48.42 41.33 48.69 43.39 48.69C45.45 48.69 46.5 48.42 47.51 48.16C48.44 47.92 49.32 47.69 51.13 47.69C52.94 47.69 53.82 47.92 54.75 48.16C55.51 48.36 56.29 48.56 57.5 48.65C57.17 49.43 56.85 49.87 56.58 49.87ZM63.51 43.87H60.87C61.36 41.2 61.65 38.29 61.82 35.87H64.51C65.24 35.87 65.84 36.45 65.87 37.17C65.38 40.78 64.17 43.87 63.51 43.87ZM47.94 28.18C49.56 28.18 50.88 26.79 50.88 25.08C50.88 23.83 49.58 21.87 48.8 20.81C48.74 20.72 48.64 20.63 48.56 20.57C48.11 20.26 47.41 20.37 47.09 20.81C46.31 21.87 45.01 23.84 45.01 25.08C45 26.79 46.32 28.18 47.94 28.18ZM47.93 23.1C48.52 24.05 48.87 24.8 48.87 25.08C48.87 25.69 48.45 26.18 47.93 26.18C47.41 26.18 46.99 25.69 46.99 25.08C47 24.8 47.34 24.05 47.93 23.1Z" fill="black"/>
</svg>
