<svg width="36" height="55" viewBox="0 0 36 55" fill="none" xmlns="http://www.w3.org/2000/svg">
<path d="M27.95 3.67999C27.9 3.52999 26.65 0 20 0C17.68 0 15.51 0.430007 13.56 0.960007C12.66 0.730007 9.64997 0 6.99997 0C3.41997 0 2.15996 2.45 2.10996 2.55C2.10996 2.56 2.10998 2.57 2.09998 2.58C2.08998 2.6 2.07996 2.61 2.07996 2.62C2.05996 2.67 2.05998 2.72999 2.03998 2.78999C2.02998 2.84999 2.00998 2.90001 2.00998 2.96001C2.00998 2.97001 1.99997 2.98001 1.99997 2.99001C1.99997 2.99001 1.99997 2.99999 1.99997 3.00999V3.02C1.99997 3.19 2.04998 3.47999 2.25998 3.78999L5.45996 10.99H4.99997C4.65997 10.99 4.34998 11.16 4.16998 11.44C3.97998 11.72 3.94997 12.08 4.08997 12.38L7.00998 19.19V21C7.00998 21.55 7.45998 22 8.00998 22H22.01C22.56 22 23.01 21.55 23.01 21V19.21L25.93 12.4C26.06 12.09 26.03 11.74 25.85 11.46C25.66 11.18 25.35 11.01 25.02 11.01H24.56L27.91 4.47C28.01 4.22 28.03 3.93999 27.95 3.67999ZM9.53998 2.2C8.12998 2.65 6.89997 3 5.99997 3C5.23997 3 4.73998 2.93001 4.41998 2.85001C4.88998 2.45001 5.68997 2 6.99997 2C7.82997 2 8.70998 2.08 9.53998 2.2ZM21.08 18.61C21.03 18.73 21 18.87 21 19V20H8.99997V19C8.99997 18.86 8.96998 18.73 8.91998 18.61L6.51996 13H6.99997H23.48L21.08 18.61ZM22.29 11H7.64996L4.95996 4.95C5.26996 4.98 5.60997 5 5.99997 5C7.39997 5 9.06997 4.46 11 3.83C13.65 2.97 16.65 2 20 2C23.99 2 25.42 3.37999 25.87 4.00999L22.29 11ZM23 5C23 5.55 22.55 6 22 6C21.45 6 21 5.55 21 5C21 4.45 21.45 4 22 4C22.55 4 23 4.45 23 5ZM19 5C19 5.55 18.55 6 18 6C17.45 6 17 5.55 17 5C17 4.45 17.45 4 18 4C18.55 4 19 4.45 19 5ZM15 5C15 5.55 14.55 6 14 6C13.45 6 13 5.55 13 5C13 4.45 13.45 4 14 4C14.55 4 15 4.45 15 5ZM17 8C17 8.55 16.55 9 16 9C15.45 9 15 8.55 15 8C15 7.45 15.45 7 16 7C16.55 7 17 7.45 17 8ZM21 8C21 8.55 20.55 9 20 9C19.45 9 19 8.55 19 8C19 7.45 19.45 7 20 7C20.55 7 21 7.45 21 8ZM13 8C13 8.55 12.55 9 12 9C11.45 9 11 8.55 11 8C11 7.45 11.45 7 12 7C12.55 7 13 7.45 13 8ZM31.98 37H29.07C28.57 35.83 27.4 35 26.04 35H3.62997C1.80997 35 0.339966 36.48 0.339966 38.36C0.739966 44.58 1.94997 55 5.62997 55H24.04C25.88 55 27.1 52.39 27.92 49H30.97C33.89 49 34.99 43.05 35.32 40.49L35.33 40.36C35.34 38.51 33.83 37 31.98 37ZM3.37997 46.86C4.55997 46.93 5.30997 47.11 6.08997 47.3C7.17997 47.56 8.29996 47.83 10.52 47.83C12.74 47.83 13.87 47.56 14.96 47.3C15.98 47.06 16.95 46.83 18.93 46.83C20.91 46.83 21.88 47.06 22.9 47.3C23.76 47.51 24.66 47.71 26.09 47.79C25.93 48.53 25.77 49.21 25.61 49.81C24.28 49.76 23.51 49.56 22.72 49.36C21.71 49.1 20.66 48.83 18.6 48.83C16.54 48.83 15.49 49.1 14.48 49.36C13.55 49.6 12.67 49.83 10.86 49.83C9.04996 49.83 8.16996 49.6 7.23996 49.36C6.34996 49.13 5.41996 48.89 3.79996 48.84C3.65996 48.23 3.51997 47.57 3.37997 46.86ZM23.37 45.35C22.28 45.09 21.15 44.82 18.93 44.82C16.71 44.82 15.58 45.09 14.49 45.35C13.47 45.59 12.5 45.82 10.52 45.82C8.53996 45.82 7.56996 45.59 6.54996 45.35C5.61996 45.13 4.66998 44.9 3.03998 44.84C2.94998 44.25 2.85997 43.63 2.77997 43H26.88C26.75 43.99 26.61 44.92 26.46 45.8C25.06 45.75 24.23 45.55 23.37 45.35ZM3.62997 37H26.04C26.75 37 27.33 37.58 27.33 38.23C27.27 39.18 27.19 40.1 27.1 41H2.54996C2.45996 40.12 2.38996 39.22 2.32996 38.29C2.33996 37.58 2.91997 37 3.62997 37ZM24.05 53H5.63998C5.25998 53 4.81996 52.22 4.36997 50.87C5.38997 50.95 6.04996 51.12 6.73996 51.29C7.74996 51.55 8.79996 51.82 10.86 51.82C12.92 51.82 13.97 51.55 14.98 51.29C15.91 51.05 16.79 50.82 18.6 50.82C20.41 50.82 21.29 51.05 22.22 51.29C22.98 51.49 23.76 51.69 24.97 51.78C24.64 52.56 24.32 53 24.05 53ZM30.98 47H28.34C28.83 44.33 29.12 41.42 29.29 39H31.98C32.71 39 33.31 39.58 33.34 40.3C32.85 43.92 31.64 47 30.98 47ZM15.41 31.31C17.03 31.31 18.35 29.92 18.35 28.21C18.35 26.96 17.05 25 16.27 23.94C16.21 23.85 16.11 23.76 16.03 23.7C15.58 23.39 14.88 23.5 14.56 23.94C13.78 25 12.48 26.97 12.48 28.21C12.47 29.92 13.79 31.31 15.41 31.31ZM15.41 26.23C16 27.18 16.35 27.93 16.35 28.21C16.35 28.82 15.93 29.31 15.41 29.31C14.89 29.31 14.47 28.82 14.47 28.21C14.47 27.94 14.81 27.18 15.41 26.23Z" fill="black"/>
</svg>
