<svg width="36" height="47" viewBox="0 0 36 47" fill="none" xmlns="http://www.w3.org/2000/svg">
<path d="M31.9 28.72H29C28.5 27.55 27.33 26.72 25.97 26.72H23.96C23.86 25.98 23.5 25.32 22.97 24.83H23V16.15C23 14.41 21.58 12.99 19.84 12.99H10.16C8.41997 12.99 7 14.41 7 16.15V24.83H7.03003C6.50003 25.31 6.13998 25.97 6.03998 26.72H3.54999C1.72999 26.72 0.26001 28.2 0.26001 30.08C0.66001 36.3 1.86999 46.72 5.54999 46.72H23.96C25.8 46.72 27.02 44.11 27.84 40.72H30.89C33.81 40.72 34.91 34.77 35.24 32.21L35.25 32.08C35.26 30.23 33.75 28.72 31.9 28.72ZM8 28.72H10V31.83C10 33.57 11.42 34.99 13.16 34.99H16.84C18.58 34.99 20 33.57 20 31.83V28.72H22V34.83C22 35.47 21.48 35.99 20.84 35.99H9.15997C8.51997 35.99 8 35.47 8 34.83V28.72ZM12 28.72H18V31.83C18 32.47 17.48 32.99 16.84 32.99H13.16C12.52 32.99 12 32.47 12 31.83V28.72ZM20.84 24H20V18H21V24.02C20.95 24.01 20.89 24 20.84 24ZM18 18V24H12V18H18ZM10.16 15H19.84C20.42 15 20.89 15.44 20.97 16H9.03998C9.10998 15.44 9.57997 15 10.16 15ZM9 18H10V24H9.15997C9.09997 24 9.05 24.01 9 24.02V18ZM9.15997 26H20.84C21.33 26 21.74 26.3 21.91 26.72H8.09003C8.26003 26.3 8.67997 26 9.15997 26ZM23.97 44.72H5.56C4.47 44.72 2.80002 38.27 2.27002 30.01C2.27002 29.3 2.85 28.72 3.56 28.72H6V34.83C6 36.57 7.41997 37.99 9.15997 37.99H20.84C22.58 37.99 24 36.57 24 34.83V28.72H25.97C26.68 28.72 27.26 29.3 27.26 29.95C26.73 38.27 25.06 44.72 23.97 44.72ZM30.9 38.72H28.26C28.75 36.05 29.04 33.14 29.21 30.72H31.9C32.63 30.72 33.23 31.3 33.26 32.02C32.78 35.64 31.56 38.72 30.9 38.72ZM13 20C13 19.45 13.45 19 14 19C14.55 19 15 19.45 15 20C15 20.55 14.55 21 14 21C13.45 21 13 20.55 13 20ZM15 22C15 21.45 15.45 21 16 21C16.55 21 17 21.45 17 22C17 22.55 16.55 23 16 23C15.45 23 15 22.55 15 22ZM15.02 8.1C16.64 8.1 17.96 6.70999 17.96 4.99999C17.96 3.75999 16.66 1.78999 15.88 0.729985C15.81 0.639985 15.72 0.549985 15.63 0.479985C15.19 0.169985 14.49 0.289985 14.17 0.729985C13.39 1.78999 12.09 3.75999 12.09 4.99999C12.08 6.69999 13.4 8.1 15.02 8.1ZM15.02 3.01999C15.61 3.96999 15.96 4.71999 15.96 4.99999C15.96 5.60999 15.54 6.1 15.02 6.1C14.5 6.1 14.08 5.60999 14.08 4.99999C14.08 4.71999 14.43 3.95999 15.02 3.01999Z" fill="black"/>
</svg>
