<svg width="37" height="46" viewBox="0 0 37 46" fill="none" xmlns="http://www.w3.org/2000/svg">
<g clip-path="url(#clip0_70_679)">
<path d="M16.9524 11L7 1H29L19.0476 11H16.9524Z" stroke="white" stroke-width="2" stroke-linejoin="round"/>
<path d="M8.5 38V44.5H28V38" stroke="white" stroke-width="2" stroke-linejoin="round"/>
<path d="M10.6317 10.0096L9.11781 8.69922C8.84107 9.04883 8.5986 9.40831 8.38677 9.77054C7.69012 10.9618 7.34603 12.1443 7.17472 13.0231C7.0887 13.4644 7.04513 13.8349 7.023 14.0997C7.01193 14.2323 7.00618 14.339 7.0032 14.4154C7.00171 14.4536 7.00091 14.4843 7.00048 14.507L7.00008 14.5349L7.00002 14.5442L7 14.5477V14.5491C7 14.5497 7 14.5504 8 14.5504H7V25.0004C7 25.5526 7.44772 26.0004 8 26.0004C8.55228 26.0004 9 25.5526 9 25.0004V14.5531L9.00013 14.5447C9.00031 14.535 9.00073 14.5177 9.00168 14.4933C9.00359 14.4445 9.00761 14.3674 9.01606 14.2662C9.033 14.0635 9.06755 13.766 9.13778 13.4057C9.27897 12.6814 9.55988 11.7264 10.1132 10.7802C10.2631 10.5239 10.4347 10.2651 10.6317 10.0096Z" fill="white"/>
<path fill-rule="evenodd" clip-rule="evenodd" d="M25.5784 10.2966C25.6903 10.4578 25.7928 10.6195 25.8868 10.7802C26.4401 11.7264 26.721 12.6814 26.8622 13.4057C26.9324 13.766 26.967 14.0635 26.9839 14.2662C26.9924 14.3674 26.9964 14.4445 26.9983 14.4933C26.9993 14.5177 26.9997 14.535 26.9999 14.5447L27 14.5514V14.5531V25.0004C27 25.5526 27.4477 26.0004 28 26.0004C28.5523 26.0004 29 25.5526 29 25.0004V14.5504H28C29 14.5504 29 14.5497 29 14.5491V14.5442L28.9999 14.5349L28.9995 14.507C28.9991 14.4843 28.9983 14.4536 28.9968 14.4154C28.9938 14.339 28.9881 14.2323 28.977 14.0997C28.9549 13.8349 28.9113 13.4644 28.8253 13.0231C28.654 12.1443 28.3099 10.9618 27.6132 9.77053C27.4581 9.50528 27.2866 9.2415 27.0972 8.98199L25.5784 10.2966ZM27 14.5531C27 14.5536 27 14.5535 27 14.5531V14.5531Z" fill="white"/>
<path d="M13 7V14H23V7" stroke="white" stroke-width="2" stroke-linecap="round" stroke-linejoin="round"/>
<path d="M36.0237 27.3843C36.0238 27.3843 36.0231 27.3858 36.0211 27.3888C36.0226 27.3858 36.0236 27.3843 36.0237 27.3843ZM35.1378 27.0505C35.5254 27.2239 35.7717 27.3796 35.9126 27.5C35.7717 27.6204 35.5254 27.7761 35.1378 27.9495C34.3055 28.3218 33.0387 28.6814 31.3955 28.9923C28.1256 29.6109 23.5658 30 18.4999 30C13.434 30 8.87424 29.6109 5.60433 28.9923C3.96114 28.6814 2.69429 28.3218 1.86204 27.9495C1.47437 27.7761 1.22809 27.6204 1.08717 27.5C1.22809 27.3796 1.47437 27.2239 1.86204 27.0505C2.69429 26.6782 3.96114 26.3186 5.60433 26.0077C8.87424 25.3891 13.434 25 18.4999 25C23.5658 25 28.1256 25.3891 31.3955 26.0077C33.0387 26.3186 34.3055 26.6782 35.1378 27.0505ZM0.976085 27.3843C0.976199 27.3843 0.977178 27.3858 0.978679 27.3888C0.976722 27.3858 0.975971 27.3843 0.976085 27.3843ZM0.976085 27.6157C0.975971 27.6157 0.976722 27.6142 0.978679 27.6112C0.977178 27.6142 0.976199 27.6157 0.976085 27.6157ZM36.0211 27.6112C36.0231 27.6142 36.0238 27.6157 36.0237 27.6157C36.0236 27.6157 36.0226 27.6142 36.0211 27.6112Z" stroke="white" stroke-width="2"/>
<path d="M1 28V29.113C1 32.7909 2.94984 36.1299 6.54494 36.9058C9.29162 37.4986 13.1855 38 18.5 38C23.8145 38 27.7084 37.4986 30.4551 36.9058C34.0502 36.1299 36 32.7909 36 29.113V28" stroke="white" stroke-width="2" stroke-linejoin="round"/>
<path d="M18 21C19.1046 21 20 20.1046 20 19C20 17.8954 19.1046 17 18 17C16.8954 17 16 17.8954 16 19C16 20.1046 16.8954 21 18 21Z" fill="white"/>
</g>
<defs>
<clipPath id="clip0_70_679">
<rect width="37" height="46" fill="white"/>
</clipPath>
</defs>
</svg>
