<svg width="12" height="12" viewBox="0 0 12 12" fill="none" xmlns="http://www.w3.org/2000/svg">
<g clip-path="url(#clip0_31_328)">
<path d="M10.1873 2.31458C10.5008 2.39812 10.7767 2.58563 10.9697 2.84642C11.1628 3.1072 11.2616 3.42581 11.25 3.75008V9.75007C11.25 10.1479 11.092 10.5294 10.8107 10.8107C10.5294 11.092 10.1478 11.2501 9.75 11.2501H2.25C1.85218 11.2501 1.47064 11.092 1.18934 10.8107C0.908035 10.5294 0.75 10.1479 0.75 9.75007V3.75008C0.76076 3.43674 0.864792 3.13374 1.04878 2.87987C1.23276 2.62601 1.48833 2.43283 1.78275 2.32508" stroke="white" stroke-width="2" stroke-linecap="round"/>
<path d="M7.5 0.75H4.5C4.08579 0.75 3.75 1.08579 3.75 1.5V3C3.75 3.41421 4.08579 3.75 4.5 3.75H7.5C7.91421 3.75 8.25 3.41421 8.25 3V1.5C8.25 1.08579 7.91421 0.75 7.5 0.75Z" stroke="white" stroke-width="2"/>
<path d="M3.75 6.75C4.16421 6.75 4.5 6.41421 4.5 6C4.5 5.58579 4.16421 5.25 3.75 5.25C3.33579 5.25 3 5.58579 3 6C3 6.41421 3.33579 6.75 3.75 6.75Z" fill="white"/>
<path d="M6 6.75C6.41421 6.75 6.75 6.41421 6.75 6C6.75 5.58579 6.41421 5.25 6 5.25C5.58579 5.25 5.25 5.58579 5.25 6C5.25 6.41421 5.58579 6.75 6 6.75Z" fill="white"/>
<path d="M8.25 6.75C8.66421 6.75 9 6.41421 9 6C9 5.58579 8.66421 5.25 8.25 5.25C7.83579 5.25 7.5 5.58579 7.5 6C7.5 6.41421 7.83579 6.75 8.25 6.75Z" fill="white"/>
<path d="M3.75 9C4.16421 9 4.5 8.66421 4.5 8.25C4.5 7.83579 4.16421 7.5 3.75 7.5C3.33579 7.5 3 7.83579 3 8.25C3 8.66421 3.33579 9 3.75 9Z" fill="white"/>
<path d="M6 9C6.41421 9 6.75 8.66421 6.75 8.25C6.75 7.83579 6.41421 7.5 6 7.5C5.58579 7.5 5.25 7.83579 5.25 8.25C5.25 8.66421 5.58579 9 6 9Z" fill="white"/>
<path d="M8.25 9C8.66421 9 9 8.66421 9 8.25C9 7.83579 8.66421 7.5 8.25 7.5C7.83579 7.5 7.5 7.83579 7.5 8.25C7.5 8.66421 7.83579 9 8.25 9Z" fill="white"/>
</g>
<defs>
<clipPath id="clip0_31_328">
<rect width="12" height="12" fill="white"/>
</clipPath>
</defs>
</svg>
