<svg width="57" height="42" viewBox="0 0 57 42" fill="none" xmlns="http://www.w3.org/2000/svg">
<g clip-path="url(#clip0_37_141)">
<path d="M21.09 13.314H1M44.8 28.6221C45.821 28.6198 46.8196 28.9734 47.6695 29.6381C48.5193 30.3028 49.1823 31.2487 49.5743 32.3562C49.9664 33.4637 50.07 34.683 49.8721 35.8597C49.6741 37.0364 49.1834 38.1177 48.4622 38.9667C47.741 39.8157 46.8216 40.3942 45.8204 40.629C44.8191 40.8639 43.7811 40.7446 42.8377 40.2861C41.8942 39.8276 41.0877 39.0506 40.5203 38.0534C39.9529 37.0563 39.65 35.8837 39.65 34.6843C39.6487 33.8887 39.7809 33.1007 40.0391 32.3653C40.2974 31.6298 40.6765 30.9615 41.1549 30.3984C41.6332 29.8353 42.2014 29.3886 42.8269 29.0838C43.4523 28.779 44.1228 28.6221 44.8 28.6221V28.6221ZM43 34.6843C42.998 35.1002 43.1011 35.5074 43.2961 35.8546C43.4912 36.2017 43.7694 36.473 44.0958 36.6343C44.4221 36.7956 44.7818 36.8396 45.1294 36.7608C45.477 36.6819 45.7969 36.4837 46.0486 36.1913C46.3003 35.8988 46.4726 35.5252 46.5436 35.1178C46.6146 34.7103 46.5812 34.2872 46.4475 33.9021C46.3139 33.5169 46.086 33.187 45.7928 32.954C45.4995 32.721 45.154 32.5954 44.8 32.5931C44.5649 32.5915 44.3319 32.6444 44.1142 32.7486C43.8966 32.8529 43.6985 33.0065 43.5313 33.2007C43.3642 33.3949 43.2312 33.6258 43.1401 33.8804C43.0489 34.1349 43.0013 34.4081 43 34.6843ZM9.25 34.6843C9.25198 35.8804 9.5557 37.049 10.1228 38.0425C10.6899 39.0359 11.4949 39.8096 12.4361 40.2657C13.3773 40.7219 14.4125 40.84 15.4108 40.6052C16.4092 40.3704 17.3259 39.7933 18.0451 38.9466C18.7644 38.1 19.2539 37.0219 19.4518 35.8486C19.6497 34.6752 19.5471 33.4593 19.157 32.3544C18.7669 31.2495 18.1068 30.3053 17.2601 29.641C16.4135 28.9767 15.4181 28.6221 14.4 28.6221C13.7237 28.6237 13.0543 28.7817 12.4299 29.0872C11.8056 29.3927 11.2386 29.8396 10.7613 30.4025C10.284 30.9655 9.90579 31.6333 9.64819 32.368C9.39059 33.1026 9.25869 33.8897 9.26 34.6843H9.25ZM12.61 34.6843C12.608 35.1002 12.7111 35.5074 12.9061 35.8546C13.1012 36.2017 13.3794 36.473 13.7058 36.6343C14.0321 36.7956 14.3918 36.8396 14.7394 36.7608C15.087 36.6819 15.4069 36.4837 15.6586 36.1913C15.9103 35.8988 16.0826 35.5252 16.1536 35.1178C16.2246 34.7103 16.1912 34.2872 16.0575 33.9021C15.9239 33.5169 15.696 33.187 15.4028 32.954C15.1095 32.721 14.764 32.5954 14.41 32.5931C13.937 32.593 13.4832 32.813 13.1478 33.2048C12.8124 33.5967 12.6226 34.1286 12.62 34.6843H12.61ZM39.53 35.0132H23.53H39.53ZM49.92 35.0132H55.92V23.5586C56 14.9705 55 10.2007 45.76 10.2007H37.57C37.4011 10.2007 37.2338 10.24 37.0778 10.3163C36.9219 10.3926 36.7803 10.5044 36.6614 10.6453C36.5424 10.7862 36.4483 10.9534 36.3845 11.1372C36.3208 11.321 36.2887 11.5178 36.29 11.7162V35.0132H49.92ZM5 26.7189V31.8294C5.01307 32.6584 5.30192 33.4485 5.8047 34.0304C6.30749 34.6123 6.98423 34.9398 7.69 34.9427H9.26L5 26.7189ZM36.14 28.7631V5.26641C36.1453 4.8469 36.0797 4.43032 35.947 4.0408C35.8143 3.65128 35.6172 3.29655 35.367 2.99716C35.1168 2.69777 34.8185 2.45967 34.4895 2.29663C34.1604 2.1336 33.8071 2.04887 33.45 2.04736H7.69C6.97738 2.05046 6.2947 2.38441 5.79079 2.97641C5.28689 3.56842 5.00263 4.37046 5 5.20767V6.15928L36.14 28.7631ZM26.28 29.7382H17.4H26.28ZM45.7 10.2712V22.4777C45.7 22.8516 45.8264 23.2102 46.0515 23.4746C46.2765 23.739 46.5817 23.8875 46.9 23.8875H55.9L45.7 10.2712ZM23.08 19.1882H3H23.08Z" stroke="white" stroke-width="2" stroke-linecap="round" stroke-linejoin="round"/>
</g>
<defs>
<clipPath id="clip0_37_141">
<rect width="57" height="41.037" fill="white" transform="translate(0 0.872559)"/>
</clipPath>
</defs>
</svg>
