<svg width="36" height="51" viewBox="0 0 36 51" fill="none" xmlns="http://www.w3.org/2000/svg">
<g clip-path="url(#clip0_37_170)">
<path d="M13.4112 14.4117C13.178 13.7687 12.8378 13.1866 12.4103 12.6995C10.6689 10.6824 8.74729 11.9138 7.00584 9.88489C6.54249 9.34523 6.19888 8.68089 6.00501 7.94984M30.3253 43.7659C25.0008 50.0049 17.3144 51.0839 13.0909 46.1114C8.86739 41.1389 9.80818 32.1438 15.0926 25.9048C20.377 19.6657 28.1034 18.5985 32.3269 23.5592C36.5505 28.52 35.6497 37.5385 30.3253 43.7659ZM16.9541 42.3234C16.9541 42.3234 16.1635 39.9778 18.6355 37.0342C21.1076 34.0906 23.8699 35.8615 26.342 32.9882C27.0658 32.0868 27.5896 30.9907 27.8671 29.7965C28.1445 28.6022 28.1673 27.3463 27.9333 26.1393L16.9541 42.3234ZM4.25355 17.3905C7.96664 21.7297 13.3311 22.4803 16.2636 19.0559C19.196 15.6314 18.5455 9.34542 14.8424 4.98277C11.1393 0.620108 5.7548 -0.0952739 2.83237 3.32918C-0.09007 6.75363 0.550464 13.0513 4.25355 17.3905Z" stroke="white" stroke-width="2" stroke-linecap="round" stroke-linejoin="round"/>
</g>
<defs>
<clipPath id="clip0_37_170">
<rect width="36" height="50.4168" fill="white" transform="translate(0 0.0102539)"/>
</clipPath>
</defs>
</svg>
