<svg width="46" height="55" viewBox="0 0 46 55" fill="none" xmlns="http://www.w3.org/2000/svg">
<g clip-path="url(#clip0_37_178)">
<path fill-rule="evenodd" clip-rule="evenodd" d="M5.04458 3.81558C5.3942 3.06954 6.18409 2.66528 7.30951 2.66528H33.4317C33.5569 2.66528 33.6779 2.67028 33.7946 2.6802C33.7563 2.76185 33.7179 2.84627 33.6795 2.93352C32.9224 4.65305 32.1678 7.46112 31.9517 11.9795C31.8237 14.6571 31.6275 19.4998 31.4165 24.9425H33.4186C33.6278 19.5478 33.8219 14.7604 33.9486 12.1108C34.153 7.83556 34.8586 5.36745 35.4566 4.00921C35.5111 3.88543 35.5648 3.77074 35.6172 3.6646C35.6458 3.71325 35.6723 3.76358 35.6967 3.81558C36.3116 5.12773 37.0781 7.62386 37.2926 12.1108C37.4195 14.7643 37.6591 19.5509 37.9318 24.9425H39.9353C39.6598 19.4967 39.4174 14.6532 39.2895 11.9795C39.0628 7.23778 38.2429 4.37934 37.4495 2.68635C36.9803 1.68523 36.2621 1.07657 35.4787 0.727798C35.3554 0.487879 35.3549 0.488279 35.3543 0.488679L35.3524 0.490004L35.3485 0.492793L35.34 0.498937L35.3204 0.513536C35.3062 0.524318 35.2897 0.537216 35.2711 0.552398C35.2495 0.570017 35.2251 0.590692 35.1981 0.614675C34.6082 0.40046 33.9944 0.320312 33.4317 0.320312H7.30951C5.89751 0.320312 4.16404 0.824986 3.29175 2.68635C2.49837 4.37935 1.67845 7.2378 1.45174 11.9795C1.11784 18.9628 0.319589 40.6925 0.00370965 49.3809C-0.0934372 52.053 1.72998 54.2546 3.99973 54.2546H37.1842C39.4831 54.2546 41.3166 51.9976 41.1779 49.2955C41.1631 49.008 41.1477 48.7066 41.1315 48.3922H39.1279C39.1467 48.7576 39.1646 49.1062 39.1815 49.4364C39.2504 50.7789 38.3411 51.9096 37.1842 51.9096H32.4138L32.4203 51.7292C32.4498 50.9144 32.4911 49.7751 32.5415 48.3922H30.5397C30.4909 49.7303 30.4509 50.8346 30.4221 51.6298L30.412 51.9096H3.99973C2.85664 51.9096 1.95369 50.8067 2.0019 49.4808C2.31813 40.7825 3.11566 19.074 3.4486 12.1108C3.66314 7.62386 4.42967 5.12773 5.04458 3.81558ZM8.37062 6.18274C7.81834 6.18274 7.37062 6.70768 7.37062 7.35522C7.37062 8.00276 7.81834 8.52771 8.37062 8.52771H28.3706C28.9229 8.52771 29.3706 8.00276 29.3706 7.35522C29.3706 6.70768 28.9229 6.18274 28.3706 6.18274H8.37062Z" fill="white"/>
<path d="M42.3707 28.46H19.3707C18.2661 28.46 17.3707 29.5098 17.3707 30.8049V44.8747C17.3707 46.1698 18.2661 47.2197 19.3707 47.2197H42.3707C43.4753 47.2197 44.3707 46.1698 44.3707 44.8747V30.8049C44.3707 29.5098 43.4753 28.46 42.3707 28.46Z" stroke="white" stroke-width="2"/>
<path d="M29.3707 43.1159C29.3707 43.4396 29.5945 43.7021 29.8707 43.7021H30.6862C30.9623 43.7021 31.1862 43.4396 31.1862 43.1159V40.5197C31.1862 40.1959 31.41 39.9334 31.6862 39.9334H33.2378C35.5109 39.9334 37.3707 38.56 37.3707 35.9302C37.3707 33.5351 35.8504 31.9773 33.4445 31.9773H29.8707C29.5945 31.9773 29.3707 32.2398 29.3707 32.5635V43.1159ZM31.6862 38.0742C31.41 38.0742 31.1862 37.8117 31.1862 37.488V34.4395C31.1862 34.1158 31.41 33.8533 31.6862 33.8533H33.2969C34.6548 33.8533 35.5256 34.5735 35.5256 35.947C35.5256 37.2032 34.6696 38.0742 33.2969 38.0742H31.6862Z" fill="white" stroke="white" stroke-width="0.5"/>
<path d="M30.3707 39.0122H27.3707" stroke="white" stroke-width="2" stroke-linecap="round" stroke-linejoin="round"/>
</g>
<defs>
<clipPath id="clip0_37_178">
<rect width="46" height="53.9343" fill="white" transform="translate(0 0.320312)"/>
</clipPath>
</defs>
</svg>
