<svg width="63" height="56" viewBox="0 0 63 56" fill="none" xmlns="http://www.w3.org/2000/svg">
<g clip-path="url(#clip0_39_305)">
<path d="M55.5064 25.0274C53.3656 23.7726 49.3518 23.7581 49.182 23.7581C48.673 23.7581 48.2604 24.2418 48.2604 24.8385C48.2604 25.4353 48.673 25.9191 49.182 25.9191C50.2177 25.9193 53.2249 26.1062 54.6821 26.9605C54.8144 27.0381 54.955 27.0747 55.0935 27.0747C55.4315 27.0747 55.757 26.8558 55.9185 26.4773C56.1462 25.9435 55.9616 25.2944 55.5064 25.0274Z" fill="white"/>
<path d="M60.101 40.4112L56.2949 39.1362C56.1306 39.0812 56.0158 38.9028 56.0158 38.7025V37.2128C56.3255 36.9613 56.6209 36.6798 56.897 36.3656C58.2351 34.843 58.972 32.8008 58.972 30.6149V28.5594L59.34 27.6966C59.7439 26.7493 59.9574 25.6888 59.9574 24.6298V19.0615C59.9574 18.4647 59.5448 17.9809 59.0358 17.9809H50.1673C46.9425 17.9809 44.3188 21.0572 44.3188 24.8382V24.9026C44.3188 25.7832 44.4964 26.665 44.8322 27.4525L45.3042 28.5593V30.3241C45.3042 33.1212 46.4798 35.6308 48.2604 37.1409L48.2606 38.7021C48.2606 38.9428 48.2606 39.0426 47.4997 39.2976L45.6425 39.9196L40.2701 37.6292C40.2894 37.3319 40.2039 37.0297 40.019 36.802L38.3022 34.6873V31.1374C38.4837 30.962 38.6626 30.7819 38.836 30.5914C41.0018 28.2113 42.2438 24.851 42.2438 21.3721V18.537C42.8978 16.8686 43.2292 15.1029 43.2292 13.2846V1.73142C43.2292 1.13467 42.8165 0.650879 42.3076 0.650879H28.5122C23.6573 0.650879 19.7076 5.28193 19.7076 10.9741V13.2849C19.7076 15.1032 20.039 16.8688 20.693 18.5374V20.9766C20.693 25.0158 22.2248 28.6549 24.6345 31.0539V34.6874L22.9178 36.8021C22.7329 37.0299 22.6474 37.3322 22.6667 37.6294L16.9965 40.0467C16.5856 40.2219 16.2038 40.4592 15.8571 40.7467L14.9668 40.2247C17.6172 38.872 18.4569 36.9695 18.4972 36.875C18.6269 36.5709 18.6269 36.2127 18.4972 35.9085C17.8328 34.3505 17.7523 31.4948 17.6877 29.2004C17.6661 28.4365 17.6457 27.7149 17.6068 27.0723C17.2926 21.8895 13.9321 17.9809 9.78992 17.9809C5.64771 17.9809 2.28712 21.8893 1.97305 27.0723C1.9341 27.715 1.9137 28.4367 1.8922 29.2006C1.82756 31.4951 1.74695 34.3504 1.08268 35.9084C0.952918 36.2126 0.952918 36.5708 1.08268 36.8748C1.12298 36.9694 1.96088 38.8679 4.61664 40.2222L2.14348 41.672C0.821315 42.4477 0 44.0058 0 45.7389V53.7218C0 54.3186 0.412624 54.8023 0.921584 54.8023C1.43054 54.8023 1.84317 54.3186 1.84317 53.7218V45.7389C1.84317 44.8295 2.2741 44.0119 2.96775 43.6052L6.04743 41.7998L7.11868 42.9934C7.86774 43.8281 8.82865 44.2451 9.78992 44.2451C10.7509 44.2451 11.7123 43.8277 12.4612 42.9934L13.5323 41.7999L14.5364 42.3886C14.0636 43.2757 13.7952 44.3158 13.7952 45.4056V53.7221C13.7952 54.3189 14.2079 54.8027 14.7168 54.8027C15.2258 54.8027 15.6384 54.3189 15.6384 53.7221V45.4056C15.6384 43.9221 16.4372 42.5849 17.6263 42.0779L23.6046 39.5291L26.0932 43.9062C26.4114 44.4657 26.9212 44.8246 27.4919 44.8908C27.5556 44.8982 27.6189 44.9019 27.682 44.9019C28.1856 44.9019 28.6679 44.6695 29.0284 44.2469L30.5467 42.4667V53.7222C30.5467 54.319 30.9593 54.8028 31.4683 54.8028C31.9772 54.8028 32.3899 54.319 32.3899 53.7222V42.4667L33.9081 44.2469C34.2685 44.6696 34.7508 44.902 35.2545 44.902C35.3175 44.902 35.381 44.8983 35.4445 44.8911C36.0154 44.8247 36.5252 44.4659 36.8433 43.9063L39.3321 39.5294L45.3102 42.0782C46.4992 42.5851 47.2981 43.9225 47.2981 45.4058V53.7223C47.2981 54.3191 47.7108 54.8029 48.2197 54.8029C48.7287 54.8029 49.1413 54.3191 49.1413 53.7223V45.4058C49.1413 43.9034 48.6322 42.4944 47.7782 41.4523L48.0059 41.3761C48.2356 41.2992 48.5489 41.1939 48.8635 41.0131L51.2165 43.7719V53.7223C51.2165 54.3191 51.6291 54.8029 52.138 54.8029C52.647 54.8029 53.0596 54.3191 53.0596 53.7223V43.7719L55.3963 41.0322C55.5205 41.1063 55.651 41.1688 55.7884 41.2147L59.5946 42.4898C60.4634 42.7808 61.0703 43.7241 61.0703 44.7836V53.7223C61.0703 54.3191 61.4829 54.8029 61.9919 54.8029C62.5008 54.8029 62.9134 54.3191 62.9134 53.7223V44.7836C62.9134 42.764 61.7569 40.9661 60.101 40.4112ZM5.91227 38.5027C4.18841 37.7755 3.32372 36.8059 2.9546 36.2764C3.20625 35.505 3.36943 34.6215 3.4799 33.6889C3.98812 35.1177 4.8393 36.3374 5.91227 37.2077V38.5027ZM11.1917 41.4271C10.4057 42.3028 9.1743 42.3026 8.3885 41.427L7.53143 40.4721C7.67605 40.1544 7.75556 39.7942 7.75556 39.4169V38.2651C8.39845 38.5007 9.0819 38.6278 9.79017 38.6278C10.4976 38.6278 11.1807 38.5001 11.8247 38.2658L11.8245 39.4167C11.8245 39.7942 11.9039 40.1545 12.0487 40.4723L11.1917 41.4271ZM9.79041 36.4666C7.03844 36.4666 4.79973 33.8417 4.79973 30.6152C4.79973 30.0185 4.38711 29.5347 3.87815 29.5347C3.82654 29.5347 3.77616 29.5409 3.72688 29.5505C3.72959 29.4575 3.73217 29.3644 3.73487 29.2724C3.75539 28.5294 3.77518 27.8277 3.81167 27.2257C3.92939 25.2842 4.59108 23.4951 5.67487 22.1878C6.76836 20.8687 8.22987 20.1423 9.79017 20.1423C11.3505 20.1423 12.8119 20.8687 13.9055 22.1878C14.9893 23.4951 15.6509 25.2842 15.7687 27.2257C15.805 27.8275 15.8249 28.5292 15.8458 29.272C15.8477 29.3358 15.8495 29.4006 15.8514 29.4648C14.8487 27.6536 13.3002 26.3187 11.2994 25.5649C9.4509 24.8685 7.86111 24.9117 7.79402 24.9137C7.55269 24.9215 7.32364 25.0401 7.15616 25.2437L5.49338 27.2657C5.1401 27.6953 5.15067 28.3793 5.51709 28.7936C5.88351 29.2078 6.46694 29.1953 6.82021 28.7658L8.20382 27.0834C9.39536 27.1517 13.2288 27.6744 14.7197 31.5236C14.3445 34.36 12.2652 36.4666 9.79041 36.4666ZM13.6676 38.5063L13.6677 37.2176C14.7398 36.3521 15.5922 35.1347 16.1008 33.6951C16.2113 34.6256 16.3743 35.507 16.6255 36.2767C16.2585 36.801 15.3897 37.7794 13.6676 38.5063ZM22.5362 20.9765V18.2956C22.5362 18.1329 22.5048 17.9722 22.4445 17.8258C21.8515 16.3859 21.5508 14.8581 21.5508 13.2849V10.9742C21.5508 6.47357 24.6737 2.81211 28.5122 2.81211H41.386V13.285C41.386 14.8583 41.0853 16.386 40.4923 17.8259C40.432 17.9725 40.4006 18.1331 40.4006 18.2957V21.3723C40.4006 24.2986 39.3973 27.0128 37.5755 29.0149C37.3481 29.2648 37.1121 29.499 36.868 29.7174C36.8626 29.7217 36.8574 29.7264 36.8522 29.7308C35.1455 31.2501 33.0551 31.9885 30.8721 31.8227C26.1977 31.4678 22.5362 26.7036 22.5362 20.9765ZM27.7252 42.7186C27.7188 42.7261 27.7039 42.7438 27.6738 42.74C27.6438 42.7366 27.632 42.716 27.627 42.7071L24.7609 37.6662L25.6832 36.53L30.0312 40.0146L27.7252 42.7186ZM31.4684 38.5486L26.4777 34.5489V32.5319C27.769 33.3504 29.2149 33.8623 30.7528 33.979C30.9957 33.9974 31.2371 34.0065 31.4779 34.0065C33.2401 34.0065 34.936 33.5126 36.4591 32.5752V34.5489L31.4684 38.5486ZM35.3098 42.7073C35.3048 42.7162 35.293 42.7369 35.263 42.7404C35.2329 42.7448 35.2181 42.7262 35.2116 42.7188L32.9056 40.0151L37.2536 36.5302L38.1761 37.6666L35.3098 42.7073ZM52.138 41.7956L50.0467 39.3437C50.0832 39.1493 50.1038 38.9365 50.1037 38.7019L50.1036 38.2459C50.6839 38.4691 51.2956 38.6017 51.9285 38.6239C51.9996 38.6265 52.07 38.6277 52.1407 38.6277C52.8402 38.6277 53.5229 38.5037 54.1727 38.2673V38.7025C54.1727 38.918 54.1958 39.1291 54.2393 39.3322L52.138 41.7956ZM55.6134 34.8147C54.6366 35.9261 53.3463 36.5131 51.984 36.4638C49.317 36.37 47.1474 33.6158 47.1474 30.3245V28.3044C47.1474 28.1366 47.1141 27.9712 47.05 27.8212L46.4808 26.4862C46.2722 25.9971 46.162 25.4496 46.162 24.9027V24.8383C46.162 22.2487 47.9588 20.1421 50.1673 20.1421H58.1142V24.6299C58.1142 25.3552 57.968 26.0815 57.6914 26.7303L57.2262 27.8212C57.1622 27.9713 57.1289 28.1366 57.1289 28.3044V30.615C57.1289 32.2114 56.5906 33.7028 55.6134 34.8147Z" fill="white"/>
<path d="M58.0503 45.7092C57.5413 45.7092 57.1287 46.1931 57.1287 46.7898V53.7219C57.1287 54.3185 57.5413 54.8024 58.0503 54.8024C58.5593 54.8024 58.9719 54.3185 58.9719 53.7219V46.7898C58.9719 46.1932 58.5593 45.7092 58.0503 45.7092Z" fill="white"/>
<path d="M4.86311 47.1375C4.35415 47.1375 3.94153 47.6213 3.94153 48.218V53.7218C3.94153 54.3184 4.35415 54.8023 4.86311 54.8023C5.37207 54.8023 5.7847 54.3184 5.7847 53.7218V48.218C5.7847 47.6215 5.37207 47.1375 4.86311 47.1375Z" fill="white"/>
<path d="M39.0177 13.6761C35.5321 9.58937 28.2395 10.3707 25.2656 10.8962C24.3289 11.0618 23.6491 11.9912 23.6491 13.1062V15.5955C23.6491 16.1922 24.0617 16.676 24.5707 16.676C25.0797 16.676 25.4923 16.1922 25.4923 15.5955V13.1061C25.4923 13.0692 25.5129 13.0379 25.5404 13.033C26.7283 12.823 29.0855 12.4992 31.5277 12.6901C34.4015 12.9144 36.4831 13.7603 37.7144 15.2041C38.0743 15.6262 38.6579 15.6262 39.0177 15.2041C39.3776 14.7821 39.3776 14.098 39.0177 13.6761Z" fill="white"/>
<path d="M20.6293 48.02C20.1203 48.02 19.7077 48.5039 19.7077 49.1006V53.722C19.7077 54.3187 20.1203 54.8026 20.6293 54.8026C21.1382 54.8026 21.5509 54.3187 21.5509 53.722V49.1006C21.5509 48.504 21.1382 48.02 20.6293 48.02Z" fill="white"/>
<path d="M42.3076 48.02C41.7986 48.02 41.386 48.5039 41.386 49.1006V53.722C41.386 54.3187 41.7986 54.8026 42.3076 54.8026C42.8165 54.8026 43.2292 54.3187 43.2292 53.722V49.1006C43.2292 48.504 42.8165 48.02 42.3076 48.02Z" fill="white"/>
</g>
<defs>
<clipPath id="clip0_39_305">
<rect width="63" height="55.1068" fill="white" transform="translate(0 0.650879)"/>
</clipPath>
</defs>
</svg>
