<svg width="16" height="14" viewBox="0 0 16 14" fill="none" xmlns="http://www.w3.org/2000/svg">
<path d="M14.82 0.250368L0.64 5.82037C0.64 5.82037 0 6.05037 0 6.50037C0 6.95037 0.6 7.12037 0.6 7.12037L4.17 8.32037L12.73 2.88037C12.73 2.88037 13.23 2.58037 13.21 2.88037C13.21 2.88037 13.3 2.88037 13.03 3.18037C12.76 3.48037 6.3 9.24037 6.3 9.24037V9.35037L12.12 13.8104C12.2355 13.8773 12.3641 13.9186 12.497 13.9314C12.6299 13.9442 12.764 13.9282 12.8902 13.8846C13.0164 13.841 13.1317 13.7706 13.2283 13.6785C13.3249 13.5863 13.4005 13.4744 13.45 13.3504L16 0.590368C16 -0.259632 14.84 0.250368 14.84 0.250368" fill="white"/>
</svg>
