<svg width="13" height="13" viewBox="0 0 13 13" fill="none" xmlns="http://www.w3.org/2000/svg">
<g clip-path="url(#clip0_22_5)">
<path d="M6.09601 0.189994C6.22101 -0.0630059 6.42501 -0.0630059 6.55001 0.189994L8.12701 3.385C8.20442 3.52122 8.31005 3.63933 8.4368 3.73142C8.56356 3.82351 8.70853 3.88747 8.86201 3.91899L12.388 4.43299C12.668 4.47399 12.731 4.668 12.528 4.865L9.97701 7.35199C9.8712 7.4678 9.79139 7.6049 9.74292 7.75409C9.69446 7.90328 9.67846 8.06111 9.69601 8.21699L10.296 11.728C10.344 12.006 10.178 12.128 9.92801 11.995L6.77901 10.335C6.63624 10.2702 6.48128 10.2367 6.32451 10.2367C6.16774 10.2367 6.01277 10.2702 5.87001 10.335L2.71701 11.993C2.46701 12.124 2.30201 12.004 2.34901 11.726L2.94901 8.215C2.96656 8.05911 2.95056 7.90128 2.90209 7.75209C2.85363 7.6029 2.77382 7.46581 2.66801 7.35L0.119009 4.86299C-0.0809909 4.66299 -0.0199906 4.471 0.259009 4.431L3.78501 3.917C3.93849 3.88547 4.08346 3.82151 4.21021 3.72942C4.33697 3.63733 4.44259 3.51922 4.52001 3.38299L6.09601 0.189994Z" fill="#9D9D9D"/>
</g>
<defs>
<clipPath id="clip0_22_5">
<rect width="12.648" height="12.048" fill="white"/>
</clipPath>
</defs>
</svg>
