<svg width="23" height="14" viewBox="0 0 23 14" fill="none" xmlns="http://www.w3.org/2000/svg">
<g clip-path="url(#clip0_46_527)">
<path d="M22.4572 0.972015C22.6283 0.423276 22.4572 0.0176763 21.703 0.0176763H19.1944C18.9618 0.00610518 18.7316 0.0696064 18.5362 0.19919C18.3409 0.328774 18.1903 0.517887 18.1058 0.739789C17.3208 2.62926 16.2794 4.39623 15.0124 5.9886C14.4277 6.58665 14.1602 6.78387 13.8429 6.78387C13.6719 6.78387 13.4526 6.58505 13.4526 6.03631V0.954516C13.4526 0.307163 13.2582 0.0001899 12.7216 0.0001899H8.77606C8.69596 -0.00364757 8.61592 0.00882843 8.54058 0.0369102C8.46524 0.0649919 8.39612 0.108109 8.33722 0.163756C8.27832 0.219404 8.23083 0.286471 8.19751 0.361058C8.16418 0.435645 8.14567 0.516272 8.14308 0.598235C8.14308 1.22173 9.04356 1.37124 9.14153 3.11448V6.90157C9.14153 7.72388 8.99534 7.8734 8.67497 7.8734C7.82271 7.8734 5.75272 4.66049 4.51011 0.997461C4.26594 0.275353 4.02333 0.00177957 3.39036 0.00177957H0.852262C0.121313 0.00177957 0 0.350101 0 0.72388C0.664297 3.84608 2.02291 6.76981 3.97045 9.2683C4.79044 10.621 5.91437 11.7539 7.24876 12.5728C8.58314 13.3916 10.0894 13.8728 11.6423 13.9763C13.2504 13.9763 13.4448 13.6025 13.4448 12.9806V10.6569C13.4448 9.9093 13.591 9.78524 14.1026 9.78524C14.4681 9.78524 15.126 9.98405 16.6112 11.4537C18.3219 13.2033 18.6081 13.9986 19.5661 13.9986H22.0747C22.8056 13.9986 23.1462 13.6248 22.9518 12.9027C22.4166 11.7805 21.7 10.7588 20.832 9.88067C20.2473 9.18242 19.3701 8.411 19.1027 8.03722C18.7372 7.53938 18.8352 7.33898 19.1027 6.89203C20.4145 5.03636 21.5405 3.05035 22.4635 0.964054" fill="white"/>
</g>
<defs>
<clipPath id="clip0_46_527">
<rect width="23" height="14" fill="white"/>
</clipPath>
</defs>
</svg>
