<svg width="40" height="40" viewBox="0 0 40 40" fill="none" xmlns="http://www.w3.org/2000/svg">
<path d="M29.9001 14.8301C29.7835 14.3935 29.5539 13.9954 29.2344 13.6758C28.9148 13.3563 28.5167 13.1267 28.0801 13.0101C26.4701 12.5801 20.0801 12.5801 20.0801 12.5801C20.0801 12.5801 13.6301 12.5801 12.0301 13.0101C11.5944 13.1285 11.1973 13.3587 10.878 13.678C10.5588 13.9972 10.3285 14.3944 10.2101 14.8301C9.9111 16.4797 9.76714 18.1536 9.7801 19.8301C9.76714 21.5065 9.9111 23.1805 10.2101 24.8301C10.3285 25.2658 10.5588 25.6629 10.878 25.9822C11.1973 26.3014 11.5944 26.5317 12.0301 26.6501C13.6301 27.0801 20.0801 27.0801 20.0801 27.0801C20.0801 27.0801 26.5101 27.0801 28.0801 26.6501C28.5167 26.5335 28.9148 26.3039 29.2344 25.9843C29.5539 25.6648 29.7835 25.2667 29.9001 24.8301C30.1991 23.1805 30.3431 21.5065 30.3301 19.8301C30.3431 18.1536 30.1991 16.4797 29.9001 14.8301Z" fill="white"/>
<path d="M17.9805 22.8802V16.7002L23.3305 19.7902L17.9805 22.8802Z" fill="black"/>
</svg>
