<svg width="33" height="51" viewBox="0 0 33 51" fill="none" xmlns="http://www.w3.org/2000/svg">
<g clip-path="url(#clip0_70_647)">
<path d="M25.3499 9.72C26.4499 6.75259 27.6981 3.84226 29.0899 1H3.90991C5.3017 3.84226 6.54994 6.75259 7.64991 9.72" stroke="black" stroke-width="2" stroke-linecap="round" stroke-linejoin="round"/>
<path d="M2.39 36.36C1.67013 37.7187 1.19937 39.1954 1 40.72C1 44.59 1 46.53 3.91 46.53H29.09C32 46.53 32 44.59 32 40.72C32 36.85 23.68 24.83 23.29 18.85" stroke="black" stroke-width="2" stroke-linecap="round" stroke-linejoin="round"/>
<path d="M9.6999 18.86C9.33092 21.3725 8.55403 23.8079 7.3999 26.07" stroke="black" stroke-width="2" stroke-linecap="round" stroke-linejoin="round"/>
<path d="M16.5001 9.72H5.84009C7.18805 11.3473 7.87989 13.4193 7.78009 15.53V18.44H25.2201V15.53C25.1203 13.4193 25.8121 11.3473 27.1601 9.72H16.5001Z" stroke="black" stroke-width="2" stroke-linecap="round" stroke-linejoin="round"/>
<path d="M29.0899 46.54V48.46C29.0899 48.7252 28.9845 48.9796 28.797 49.1671C28.6095 49.3546 28.3551 49.46 28.0899 49.46H4.87988C4.61467 49.46 4.36031 49.3546 4.17278 49.1671C3.98524 48.9796 3.87988 48.7252 3.87988 48.46V46.54" stroke="black" stroke-width="2" stroke-miterlimit="10"/>
<path d="M2.93994 28.13C2.93994 28.13 2.93994 19.41 7.77994 19.41C12.6199 19.41 12.6299 28.13 12.6299 28.13" stroke="black" stroke-width="2" stroke-miterlimit="10"/>
<path d="M4.87998 30.06C4.88196 30.4441 4.76986 30.8202 4.5579 31.1405C4.34594 31.4609 4.04365 31.7111 3.68934 31.8594C3.33503 32.0078 2.94465 32.0477 2.56767 31.9739C2.19069 31.9002 1.84408 31.7162 1.57176 31.4453C1.29945 31.1744 1.11369 30.8288 1.03802 30.4522C0.962346 30.0756 1.00018 29.685 1.14671 29.3299C1.29325 28.9748 1.54189 28.6713 1.86114 28.4577C2.18038 28.244 2.55585 28.13 2.93998 28.13C3.45277 28.13 3.9447 28.333 4.30824 28.6947C4.67177 29.0563 4.87733 29.5472 4.87998 30.06V30.06Z" stroke="black" stroke-width="2" stroke-miterlimit="10"/>
<path d="M14.5599 30.06C14.5619 30.4445 14.4495 30.821 14.2371 31.1416C14.0247 31.4621 13.7218 31.7123 13.3669 31.8604C13.0121 32.0085 12.6212 32.0477 12.2439 31.9732C11.8667 31.8986 11.5201 31.7137 11.2481 31.4418C10.9762 31.1698 10.7913 30.8233 10.7167 30.446C10.6422 30.0688 10.6814 29.6779 10.8295 29.323C10.9776 28.9681 11.2278 28.6652 11.5484 28.4528C11.8689 28.2404 12.2454 28.128 12.6299 28.13C13.141 28.1326 13.6303 28.3368 13.9917 28.6982C14.3531 29.0596 14.5573 29.5489 14.5599 30.06V30.06Z" stroke="black" stroke-width="2" stroke-miterlimit="10"/>
</g>
<defs>
<clipPath id="clip0_70_647">
<rect width="33" height="50.44" fill="white"/>
</clipPath>
</defs>
</svg>
